<svg xmlns="http://www.w3.org/2000/svg" viewBox="0 0 1080 285" width="1080" height="285" preserveAspectRatio="none">
  <path d="M 0.00 0.00 L 5.71 0.00 C 11.33 4.17, 25.44 16.67, 39.38 25.00 C 53.33 33.33, 72.44 41.67, 89.38 50.00 C 106.33 58.33, 125.98 66.67, 141.05 75.00 C 156.12 83.33, 169.15 91.67, 179.81 100.00 C 190.47 108.33, 198.24 116.67, 205.00 125.00 C 211.76 133.33, 216.39 141.67, 220.38 150.00 C 224.37 158.33, 226.85 166.67, 228.95 175.00 C 231.06 183.33, 232.33 191.67, 233.00 200.00 C 233.67 208.33, 233.36 216.67, 232.95 225.00 C 232.55 233.33, 231.64 241.67, 230.57 250.00 C 229.50 258.33, 227.40 269.33, 226.52 275.00 C 225.65 280.67, 225.53 282.50, 225.33 284.00 L 0.00 284.00 L 0.00 0.00 Z" fill="#ff595d" />
  <path d="M 5.71 0.00 L 310.81 0.00 C 313.15 4.17, 320.21 16.67, 324.86 25.00 C 329.50 33.33, 334.57 41.67, 338.67 50.00 C 342.76 58.33, 346.35 66.67, 349.43 75.00 C 352.51 83.33, 354.98 91.67, 357.14 100.00 C 359.30 108.33, 361.00 116.67, 362.38 125.00 C 363.76 133.33, 364.71 141.67, 365.43 150.00 C 366.15 158.33, 366.66 166.67, 366.71 175.00 C 366.77 183.33, 366.25 191.67, 365.76 200.00 C 365.27 208.33, 364.66 216.67, 363.76 225.00 C 362.87 233.33, 361.71 241.67, 360.38 250.00 C 359.06 258.33, 356.79 269.33, 355.81 275.00 C 354.83 280.67, 354.70 282.50, 354.48 284.00 L 225.33 284.00 C 225.53 282.50, 225.65 280.67, 226.52 275.00 C 227.40 269.33, 229.50 258.33, 230.57 250.00 C 231.64 241.67, 232.55 233.33, 232.95 225.00 C 233.36 216.67, 233.67 208.33, 233.00 200.00 C 232.33 191.67, 231.06 183.33, 228.95 175.00 C 226.85 166.67, 224.37 158.33, 220.38 150.00 C 216.39 141.67, 211.76 133.33, 205.00 125.00 C 198.24 116.67, 190.47 108.33, 179.81 100.00 C 169.15 91.67, 156.12 83.33, 141.05 75.00 C 125.98 66.67, 106.33 58.33, 89.38 50.00 C 72.44 41.67, 53.33 33.33, 39.38 25.00 C 25.44 16.67, 11.33 4.17, 5.71 0.00 Z" fill="#ff924d" />
  <path d="M 310.81 0.00 L 540.19 0.00 C 543.33 4.17, 552.79 16.67, 559.00 25.00 C 565.21 33.33, 571.79 41.67, 577.43 50.00 C 583.06 58.33, 588.19 66.67, 592.81 75.00 C 597.43 83.33, 601.54 91.67, 605.14 100.00 C 608.75 108.33, 611.83 116.67, 614.43 125.00 C 617.03 133.33, 618.99 141.67, 620.76 150.00 C 622.53 158.33, 623.99 166.67, 625.05 175.00 C 626.10 183.33, 626.74 191.67, 627.10 200.00 C 627.45 208.33, 627.40 216.67, 627.19 225.00 C 626.98 233.33, 626.51 241.67, 625.81 250.00 C 625.11 258.33, 623.58 269.33, 623.00 275.00 C 622.42 280.67, 622.44 282.50, 622.33 284.00 L 354.48 284.00 C 354.70 282.50, 354.83 280.67, 355.81 275.00 C 356.79 269.33, 359.06 258.33, 360.38 250.00 C 361.71 241.67, 362.87 233.33, 363.76 225.00 C 364.66 216.67, 365.27 208.33, 365.76 200.00 C 366.25 191.67, 366.77 183.33, 366.71 175.00 C 366.66 166.67, 366.15 158.33, 365.43 150.00 C 364.71 141.67, 363.76 133.33, 362.38 125.00 C 361.00 116.67, 359.30 108.33, 357.14 100.00 C 354.98 91.67, 352.51 83.33, 349.43 75.00 C 346.35 66.67, 342.76 58.33, 338.67 50.00 C 334.57 41.67, 329.50 33.33, 324.86 25.00 C 320.21 16.67, 313.15 4.17, 310.81 0.00 Z" fill="#feca39" />
  <path d="M 540.19 0.00 L 916.62 0.00 C 915.90 4.17, 914.07 16.67, 912.29 25.00 C 910.50 33.33, 908.30 41.67, 905.90 50.00 C 903.51 58.33, 900.77 66.67, 897.90 75.00 C 895.04 83.33, 892.02 91.67, 888.71 100.00 C 885.41 108.33, 881.90 116.67, 878.10 125.00 C 874.29 133.33, 870.14 141.67, 865.90 150.00 C 861.67 158.33, 857.33 166.67, 852.67 175.00 C 848.01 183.33, 843.02 191.67, 837.95 200.00 C 832.89 208.33, 827.64 216.67, 822.29 225.00 C 816.93 233.33, 811.44 241.67, 805.81 250.00 C 800.17 258.33, 792.13 269.33, 788.48 275.00 C 784.83 280.67, 784.67 282.50, 783.90 284.00 L 622.33 284.00 C 622.44 282.50, 622.42 280.67, 623.00 275.00 C 623.58 269.33, 625.11 258.33, 625.81 250.00 C 626.51 241.67, 626.98 233.33, 627.19 225.00 C 627.40 216.67, 627.45 208.33, 627.10 200.00 C 626.74 191.67, 626.10 183.33, 625.05 175.00 C 623.99 166.67, 622.53 158.33, 620.76 150.00 C 618.99 141.67, 617.03 133.33, 614.43 125.00 C 611.83 116.67, 608.75 108.33, 605.14 100.00 C 601.54 91.67, 597.43 83.33, 592.81 75.00 C 588.19 66.67, 583.06 58.33, 577.43 50.00 C 571.79 41.67, 565.21 33.33, 559.00 25.00 C 552.79 16.67, 543.33 4.17, 540.19 0.00 Z" fill="#8bc927" />
  <path d="M 916.62 0.00 L 1036.14 0.00 C 1034.78 4.17, 1030.92 16.67, 1027.95 25.00 C 1024.98 33.33, 1022.43 41.67, 1018.33 50.00 C 1014.24 58.33, 1006.60 66.67, 1003.38 75.00 C 1000.17 83.33, 1001.38 91.67, 999.05 100.00 C 996.71 108.33, 992.44 116.67, 989.38 125.00 C 986.33 133.33, 983.41 141.67, 980.71 150.00 C 978.02 158.33, 975.56 166.67, 973.19 175.00 C 970.82 183.33, 968.38 191.67, 966.48 200.00 C 964.57 208.33, 963.07 216.67, 961.76 225.00 C 960.45 233.33, 959.34 241.67, 958.62 250.00 C 957.90 258.33, 957.58 269.33, 957.43 275.00 C 957.28 280.67, 957.67 282.50, 957.71 284.00 L 783.90 284.00 C 784.67 282.50, 784.83 280.67, 788.48 275.00 C 792.13 269.33, 800.17 258.33, 805.81 250.00 C 811.44 241.67, 816.93 233.33, 822.29 225.00 C 827.64 216.67, 832.89 208.33, 837.95 200.00 C 843.02 191.67, 848.01 183.33, 852.67 175.00 C 857.33 166.67, 861.67 158.33, 865.90 150.00 C 870.14 141.67, 874.29 133.33, 878.10 125.00 C 881.90 116.67, 885.41 108.33, 888.71 100.00 C 892.02 91.67, 895.04 83.33, 897.90 75.00 C 900.77 66.67, 903.51 58.33, 905.90 50.00 C 908.30 41.67, 910.50 33.33, 912.29 25.00 C 914.07 16.67, 915.90 4.17, 916.62 0.00 Z" fill="#1a82c3" />
  <path d="M 1036.14 0.00 L 1079.00 0.00 C 1079.00 4.17, 1079.00 16.67, 1079.00 25.00 C 1079.00 33.33, 1079.00 41.67, 1079.00 50.00 C 1079.00 58.33, 1079.00 66.67, 1079.00 75.00 C 1079.00 83.33, 1079.00 91.67, 1079.00 100.00 C 1079.00 108.33, 1079.00 116.67, 1079.00 125.00 C 1079.00 133.33, 1079.00 141.67, 1079.00 150.00 C 1079.00 158.33, 1079.00 166.67, 1079.00 175.00 C 1079.00 183.33, 1079.00 191.67, 1079.00 200.00 C 1079.00 208.33, 1079.00 216.67, 1079.00 225.00 C 1079.00 233.33, 1079.00 241.67, 1079.00 250.00 C 1079.00 258.33, 1079.00 269.33, 1079.00 275.00 C 1079.00 280.67, 1079.00 282.50, 1079.00 284.00 L 957.71 284.00 C 957.67 282.50, 957.28 280.67, 957.43 275.00 C 957.58 269.33, 957.90 258.33, 958.62 250.00 C 959.34 241.67, 960.45 233.33, 961.76 225.00 C 963.07 216.67, 964.57 208.33, 966.48 200.00 C 968.38 191.67, 970.82 183.33, 973.19 175.00 C 975.56 166.67, 978.02 158.33, 980.71 150.00 C 983.41 141.67, 986.33 133.33, 989.38 125.00 C 992.44 116.67, 996.71 108.33, 999.05 100.00 C 1001.38 91.67, 1000.17 83.33, 1003.38 75.00 C 1006.60 66.67, 1014.24 58.33, 1018.33 50.00 C 1022.43 41.67, 1024.98 33.33, 1027.95 25.00 C 1030.92 16.67, 1034.78 4.17, 1036.14 0.00 Z" fill="#694d92" />
</svg>